<svg width="380" height="380" viewBox="0 0 380 380" fill="none" xmlns="http://www.w3.org/2000/svg">
<rect x="0.5" y="0.5" width="379" height="379" rx="47.5" fill="url(#paint0_linear_1_3)"/>
<rect x="0.5" y="0.5" width="379" height="379" rx="47.5" stroke="#4E1111"/>
<path d="M93 114H229.239C252.435 114 271.239 132.804 271.239 156V223C271.239 246.196 252.435 265 229.239 265H93C69.804 265 51 246.196 51 223V156C51 132.804 69.804 114 93 114Z" stroke="#FF9696" stroke-width="12"/>
<path d="M272.6 192.664C272.117 190.582 272.117 188.418 272.6 186.336C273.047 184.407 274.382 182.17 278.219 178.752C282.097 175.297 287.727 171.314 295.801 165.616C306.338 158.181 313.814 152.916 319.724 149.686C325.695 146.422 328.804 145.974 330.91 146.439C333.298 146.967 335.505 148.111 337.313 149.757C338.908 151.209 340.334 154.009 341.11 160.769C341.878 167.46 341.887 176.604 341.887 189.5C341.887 202.396 341.878 211.54 341.11 218.231C340.334 224.991 338.908 227.791 337.313 229.243C335.505 230.889 333.298 232.033 330.91 232.561C328.804 233.026 325.695 232.578 319.724 229.314C313.814 226.084 306.338 220.819 295.801 213.384C287.727 207.686 282.097 203.703 278.219 200.248C274.382 196.83 273.047 194.593 272.6 192.664Z" stroke="#FF9696" stroke-width="12"/>
<defs>
<linearGradient id="paint0_linear_1_3" x1="190" y1="0" x2="190" y2="380" gradientUnits="userSpaceOnUse">
<stop stop-color="#FF4A4A"/>
<stop offset="1" stop-color="#712020"/>
</linearGradient>
</defs>
</svg>
